<svg width="100" height="100" viewBox="0 0 100 100" fill="none" xmlns="http://www.w3.org/2000/svg">
<path fill-rule="evenodd" clip-rule="evenodd" d="M66.9613 4.73688C76.4749 4.73688 81.2304 4.73688 86.3517 6.36429C91.9428 8.41007 96.3462 12.8366 98.3812 18.4572C100 23.6045 100 28.3868 100 37.9496V66.7873C100 76.351 100 81.1316 98.3812 86.2798C96.3462 91.9003 91.9428 96.3268 86.3517 98.3718C81.2304 100 76.4749 100 66.9613 100H38.2745C28.761 100 24.0046 100 18.8842 98.3718C13.2931 96.3268 8.88967 91.9003 6.85461 86.2798C5.23572 81.1316 5.23572 76.351 5.23572 66.7873V37.9496C5.23572 28.3868 5.23572 23.6045 6.85461 18.4572C8.88967 12.8366 13.2931 8.41007 18.8842 6.36429C24.0046 4.73688 28.761 4.73688 38.2745 4.73688H66.9613Z" fill="#694AFF"/>
<path fill-rule="evenodd" clip-rule="evenodd" d="M61.7256 0C71.2391 0 75.9947 0 81.116 1.62741C86.7071 3.67319 91.1104 8.09975 93.1455 13.7203C94.7644 18.8677 94.7644 23.6499 94.7644 33.2127V62.0505C94.7644 71.6141 94.7644 76.3947 93.1455 81.5429C91.1104 87.1634 86.7071 91.59 81.116 93.635C75.9947 95.2632 71.2391 95.2632 61.7256 95.2632H33.0388C23.5253 95.2632 18.7689 95.2632 13.6484 93.635C8.05734 91.59 3.65396 87.1634 1.61889 81.5429C0 76.3947 0 71.6141 0 62.0505V33.2127C0 23.6499 0 18.8677 1.61889 13.7203C3.65396 8.09975 8.05734 3.67319 13.6484 1.62741C18.7689 0 23.5253 0 33.0388 0H61.7256Z" fill="url(#paint0_linear_5603_39570)"/>
<path d="M14.326 68.0723C14.5203 68.9999 14.9331 69.7566 15.5887 70.3424C16.2443 70.9527 17.0456 71.2456 17.9926 71.2456C18.7696 71.2456 19.3767 71.0991 19.8866 70.8062C20.3722 70.5133 20.7608 70.1227 21.0521 69.6346C21.3435 69.1464 21.5378 68.5605 21.6592 67.9015C21.7806 67.2424 21.8292 66.5345 21.8292 65.7778V48.1784H25.3986V65.9243C25.3986 66.8274 25.3015 67.755 25.1072 68.7314C24.913 69.7078 24.5487 70.6354 24.0388 71.4653C23.5046 72.3196 22.7762 73.0031 21.8292 73.5645C20.8822 74.1259 19.6681 74.3945 18.1869 74.3945C16.2443 74.3945 14.666 73.8819 13.4519 72.8811C12.2378 71.8803 11.4365 70.5621 11.048 68.9755L14.326 68.0723Z" fill="black" fill-opacity="0.85"/>
<path d="M34.9139 73.7902H31.3688V48.2088H34.9382V73.7902H34.9139Z" fill="black" fill-opacity="0.85"/>
<path d="M41.1133 48.2088H49.8791C50.8261 48.2088 51.7973 48.3064 52.7443 48.5261C53.6913 48.7458 54.5655 49.1119 55.3182 49.6001C56.071 50.1127 56.678 50.7718 57.1394 51.5773C57.6007 52.4072 57.8436 53.408 57.8436 54.6529C57.8436 56.0687 57.4308 57.2648 56.6295 58.2412C55.8039 59.1932 54.7355 59.8766 53.4 60.2184V60.2916C54.2255 60.3892 54.9783 60.6089 55.6582 60.9263C56.3624 61.2436 56.9451 61.683 57.455 62.22C57.965 62.757 58.3535 63.3672 58.6206 64.0995C58.8877 64.8318 59.0334 65.6373 59.0334 66.5161C59.0334 67.7366 58.7905 68.8106 58.2806 69.7382C57.7707 70.6657 57.0908 71.398 56.2409 71.9839C55.3668 72.5697 54.3712 73.0091 53.2057 73.3264C52.0402 73.6193 50.8018 73.7902 49.4906 73.7902H41.1133V48.2088ZM44.6584 59.0223H49.2963C49.9762 59.0223 50.6075 58.9491 51.2146 58.7782C51.8216 58.6317 52.3558 58.3876 52.8172 58.0459C53.2785 57.7286 53.6428 57.3136 53.8856 56.8254C54.1527 56.3372 54.2741 55.727 54.2741 55.0435C54.2741 53.6766 53.7642 52.7002 52.7686 52.0899C51.7731 51.5041 50.4133 51.2112 48.7135 51.2112H44.6584V59.0223V59.0223ZM44.6584 70.7634H49.1263C49.8791 70.7634 50.6075 70.6902 51.3845 70.5681C52.1373 70.4461 52.8172 70.202 53.4242 69.8602C54.0313 69.5185 54.5169 69.0791 54.9054 68.5177C55.2697 67.9563 55.4639 67.224 55.4639 66.3696C55.4639 64.8562 54.954 63.7578 53.9099 63.0743C52.89 62.3908 51.3845 62.0735 49.442 62.0735H44.6584V70.7634V70.7634Z" fill="black" fill-opacity="0.85"/>
<path d="M64.1666 48.2088H72.9324C73.8794 48.2088 74.8507 48.3064 75.7977 48.5261C76.7447 48.7458 77.6188 49.1119 78.3716 49.6001C79.1243 50.1127 79.7314 50.7718 80.1927 51.5773C80.6541 52.4072 80.8969 53.408 80.8969 54.6529C80.8969 56.0687 80.4841 57.2648 79.6828 58.2412C78.8572 59.1932 77.7888 59.8766 76.4533 60.2184V60.2916C77.2789 60.3892 78.0316 60.6089 78.7115 60.9263C79.4157 61.2436 79.9985 61.683 80.5084 62.22C81.0183 62.757 81.4068 63.3672 81.6739 64.0995C81.941 64.8318 82.0867 65.6373 82.0867 66.5161C82.0867 67.7366 81.8439 68.8106 81.334 69.7382C80.824 70.6657 80.1442 71.398 79.2943 71.9839C78.4201 72.5697 77.4246 73.0091 76.259 73.3264C75.0935 73.6193 73.8551 73.7902 72.5439 73.7902H64.1666V48.2088V48.2088ZM67.7118 59.0223H72.3496C73.0295 59.0223 73.6609 58.9491 74.2679 58.7782C74.875 58.6317 75.4092 58.3876 75.8705 58.0459C76.3319 57.7286 76.6961 57.3136 76.9389 56.8254C77.206 56.3372 77.3274 55.727 77.3274 55.0435C77.3274 53.6766 76.8175 52.7002 75.822 52.0899C74.8264 51.5041 73.4666 51.2112 71.7669 51.2112H67.7118V59.0223V59.0223ZM67.7118 70.7634H72.1797C72.9324 70.7634 73.6609 70.6902 74.4136 70.5681C75.1664 70.4461 75.8462 70.202 76.4533 69.8602C77.0603 69.5185 77.546 69.0791 77.9345 68.5177C78.2987 67.9563 78.493 67.224 78.493 66.3696C78.493 64.8562 77.9831 63.7578 76.9389 63.0743C75.9191 62.3908 74.4136 62.0735 72.4711 62.0735H67.6875V70.7634H67.7118Z" fill="black" fill-opacity="0.85"/>
<path d="M49.4718 36.6279C50.1031 37.0184 51.0987 37.3601 52.2399 37.3601C53.8668 37.3601 54.4739 36.6523 54.4739 35.0168V19.1017H57.4363V35.1877C57.4363 37.9216 55.9308 40.0208 52.1914 40.0208C50.3459 40.0208 49.0347 39.5814 48.5491 39.3129L49.4718 36.6279Z" fill="#F27272"/>
<path d="M44.286 22.3873C43.6547 21.9967 42.6591 21.655 41.5179 21.655C39.891 21.655 39.2839 22.3628 39.2839 23.9983V39.9379H36.3215V23.8518C36.3215 21.1179 37.8513 19.0187 41.5664 19.0187C43.4119 19.0187 44.7231 19.4581 45.2087 19.7266L44.286 22.3873Z" fill="#F29F05"/>
<defs>
<linearGradient id="paint0_linear_5603_39570" x1="15.7941" y1="0" x2="83.3753" y2="90.9547" gradientUnits="userSpaceOnUse">
<stop stop-color="white"/>
<stop offset="1" stop-color="#FBFBFB"/>
</linearGradient>
</defs>
</svg>
