<svg
      xmlns="http://www.w3.org/2000/svg"
      width="132.355"
      height="27.176"
      version="1.1"
      viewBox="0 0 35.019 7.19"
    >
      <defs>
        <clipPath id="clipPath94" clipPathUnits="userSpaceOnUse">
          <path d="M42.52 27.508h98.517v19.633H42.52z"></path>
        </clipPath>
        <clipPath id="clipPath60" clipPathUnits="userSpaceOnUse">
          <path d="M42.52 27.508h98.517v19.633H42.52z"></path>
        </clipPath>
      </defs>
      <g transform="translate(-100.551 -181.392) matrix(.35278 0 0 -.35278 85.684 198.154)">
        <g>
          <g clipPath="url(#clipPath60)">
            <g transform="translate(116.344 35.664)">
              <path
                fill="#FFFFFF"
                fillOpacity="1"
                fillRule="nonzero"
                stroke="none"
                d="M0 0c0-2.592-1.611-3.826-3.927-3.826-2.315 0-3.825 1.234-3.825 3.826v10.345c0 .453-.076.68-.554.831-.378.126-1.007.226-1.838.226-.83 0-1.46-.1-1.837-.226-.478-.151-.554-.378-.554-.831V-.151c0-5.185 3.247-8.004 8.608-8.004 5.387 0 8.659 2.819 8.659 8.004v10.496c0 .453-.076.68-.554.831-.377.126-.981.226-1.812.226-.831 0-1.435-.1-1.812-.226-.478-.151-.554-.378-.554-.831z"
              ></path>
            </g>
            <g transform="translate(92.71 27.61)">
              <path
                fill="#FFFFFF"
                fillOpacity="1"
                fillRule="nonzero"
                stroke="none"
                d="M0 0c.831 0 1.46.101 1.837.227.479.151.554.377.554.83v13.869h4.984c.478 0 .654.176.78.554.101.302.202.856.202 1.56 0 .705-.101 1.259-.202 1.561-.126.377-.302.554-.78.554h-14.75c-.478 0-.654-.177-.78-.554-.101-.302-.202-.856-.202-1.561 0-.704.101-1.258.202-1.56.126-.378.302-.554.78-.554h4.984V1.057c0-.453.075-.679.554-.83C-1.46.101-.831 0 0 0"
              ></path>
            </g>
            <g transform="translate(52.94 31.838)">
              <path
                fill="#FFFFFF"
                fillOpacity="1"
                fillRule="nonzero"
                stroke="none"
                d="M0 0c-3.171 0-5.437 2.24-5.437 5.487S-3.171 10.974 0 10.974c3.172 0 5.437-2.24 5.437-5.487S3.172 0 0 0m0 15.304c-6.116 0-10.421-4.154-10.421-9.817S-6.116-4.329 0-4.329 10.421-.176 10.421 5.487c0 5.663-4.305 9.817-10.421 9.817"
              ></path>
            </g>
            <g transform="translate(75.065 37.501)">
              <path
                fill="#FFFFFF"
                fillOpacity="1"
                fillRule="nonzero"
                stroke="none"
                d="M0 0h-3.65v5.185H0c1.711 0 2.794-.881 2.794-2.593C2.794.931 1.711 0 0 0m.076 9.263h-7.879c-.377 0-.629-.227-.629-.63V-8.835c0-.453.075-.679.554-.83.377-.126 1.007-.227 1.837-.227.831 0 1.46.101 1.837.227.479.151.554.377.554.83v4.833H.126c4.908 0 7.526 2.668 7.526 6.594 0 4.028-2.618 6.671-7.576 6.671"
              ></path>
            </g>
            <g transform="translate(124.172 29.749)">
              <path
                fill="#FFFFFF"
                fillOpacity="1"
                fillRule="nonzero"
                stroke="none"
                d="M0 0c2.442-1.51 5.613-2.24 8.432-2.24 4.934 0 8.432 2.441 8.432 6.494 0 3.096-2.24 4.707-6.418 5.436l-.856.152c-3.197.553-4.053.956-4.053 1.837 0 1.032 1.183 1.611 3.222 1.611 1.636 0 3.222-.353 4.883-1.108.403-.176.655-.201.957.101.503.503 1.233 1.787 1.485 2.693.126.453-.025.73-.378.906-2.013 1.007-4.505 1.511-7.022 1.511-5.085 0-8.206-2.266-8.281-6.016-.076-3.348 2.215-5.034 6.292-5.663l.982-.151c3.096-.479 3.977-.856 3.977-1.838 0-1.133-1.208-1.837-3.348-1.837-1.963 0-3.951.654-6.242 1.862-.428.227-.629.202-.956-.126C.604 3.121-.101 1.812-.353.906-.478.453-.327.201 0 0"
              ></path>
            </g>
          </g>
        </g>
        <g>
          <g clipPath="url(#clipPath94)">
            <g transform="translate(116.344 35.664)">
              <path
                fill="#FFFFFF"
                fillOpacity="1"
                fillRule="nonzero"
                stroke="none"
                d="M0 0c0-2.592-1.611-3.826-3.927-3.826-2.315 0-3.825 1.234-3.825 3.826v10.345c0 .453-.076.68-.554.831-.378.126-1.007.226-1.838.226-.83 0-1.46-.1-1.837-.226-.478-.151-.554-.378-.554-.831V-.151c0-5.185 3.247-8.004 8.608-8.004 5.387 0 8.659 2.819 8.659 8.004v10.496c0 .453-.076.68-.554.831-.377.126-.981.226-1.812.226-.831 0-1.435-.1-1.812-.226-.478-.151-.554-.378-.554-.831z"
              ></path>
            </g>
            <g transform="translate(92.71 27.61)">
              <path
                fill="#FFFFFF"
                fillOpacity="1"
                fillRule="nonzero"
                stroke="none"
                d="M0 0c.831 0 1.46.101 1.837.227.479.151.554.377.554.83v13.869h4.984c.478 0 .654.176.78.554.101.302.202.856.202 1.56 0 .705-.101 1.259-.202 1.561-.126.377-.302.554-.78.554h-14.75c-.478 0-.654-.177-.78-.554-.101-.302-.202-.856-.202-1.561 0-.704.101-1.258.202-1.56.126-.378.302-.554.78-.554h4.984V1.057c0-.453.075-.679.554-.83C-1.46.101-.831 0 0 0"
              ></path>
            </g>
            <g transform="translate(52.94 31.838)">
              <path
                fill="#FFFFFF"
                fillOpacity="1"
                fillRule="nonzero"
                stroke="none"
                d="M0 0c-3.171 0-5.437 2.24-5.437 5.487S-3.171 10.974 0 10.974c3.172 0 5.437-2.24 5.437-5.487S3.172 0 0 0m0 15.304c-6.116 0-10.421-4.154-10.421-9.817S-6.116-4.329 0-4.329 10.421-.176 10.421 5.487c0 5.663-4.305 9.817-10.421 9.817"
              ></path>
            </g>
            <g transform="translate(75.065 37.501)">
              <path
                fill="#FFFFFF"
                fillOpacity="1"
                fillRule="nonzero"
                stroke="none"
                d="M0 0h-3.65v5.185H0c1.711 0 2.794-.881 2.794-2.593C2.794.931 1.711 0 0 0m.076 9.263h-7.879c-.377 0-.629-.227-.629-.63V-8.835c0-.453.075-.679.554-.83.377-.126 1.007-.227 1.837-.227.831 0 1.46.101 1.837.227.479.151.554.377.554.83v4.833H.126c4.908 0 7.526 2.668 7.526 6.594 0 4.028-2.618 6.671-7.576 6.671"
              ></path>
            </g>
            <g transform="translate(124.172 29.749)">
              <path
                fill="#FFFFFF"
                fillOpacity="1"
                fillRule="nonzero"
                stroke="none"
                d="M0 0c2.442-1.51 5.613-2.24 8.432-2.24 4.934 0 8.432 2.441 8.432 6.494 0 3.096-2.24 4.707-6.418 5.436l-.856.152c-3.197.553-4.053.956-4.053 1.837 0 1.032 1.183 1.611 3.222 1.611 1.636 0 3.222-.353 4.883-1.108.403-.176.655-.201.957.101.503.503 1.233 1.787 1.485 2.693.126.453-.025.73-.378.906-2.013 1.007-4.505 1.511-7.022 1.511-5.085 0-8.206-2.266-8.281-6.016-.076-3.348 2.215-5.034 6.292-5.663l.982-.151c3.096-.479 3.977-.856 3.977-1.838 0-1.133-1.208-1.837-3.348-1.837-1.963 0-3.951.654-6.242 1.862-.428.227-.629.202-.956-.126C.604 3.121-.101 1.812-.353.906-.478.453-.327.201 0 0"
              ></path>
            </g>
          </g>
        </g>
      </g>
    </svg>